<mxfile host="app.diagrams.net" modified="2023-10-01T12:23:54.985Z" agent="Mozilla/5.0 (Macintosh; Intel Mac OS X 10_15_7) AppleWebKit/537.36 (KHTML, like Gecko) Chrome/117.0.0.0 Safari/537.36" etag="WuAmEErkddnciro-vV1d" version="22.0.0" type="github">
  <diagram name="Page-1" id="Yd06M4Rt5yaO-1U2kp8S">
    <mxGraphModel dx="1434" dy="790" grid="1" gridSize="10" guides="1" tooltips="1" connect="1" arrows="1" fold="1" page="1" pageScale="1" pageWidth="850" pageHeight="1100" math="0" shadow="0">
      <root>
        <mxCell id="0" />
        <mxCell id="1" parent="0" />
        <mxCell id="uKn-QNpUoqeyclaI9VeJ-3" value="" style="endArrow=classic;html=1;rounded=0;exitX=0.5;exitY=1;exitDx=0;exitDy=0;" edge="1" parent="1">
          <mxGeometry width="50" height="50" relative="1" as="geometry">
            <mxPoint x="405" y="130" as="sourcePoint" />
            <mxPoint x="405" y="230" as="targetPoint" />
          </mxGeometry>
        </mxCell>
        <mxCell id="uKn-QNpUoqeyclaI9VeJ-5" value="height &amp;gt; 120?" style="rhombus;whiteSpace=wrap;html=1;" vertex="1" parent="1">
          <mxGeometry x="300" y="230" width="210" height="80" as="geometry" />
        </mxCell>
        <mxCell id="uKn-QNpUoqeyclaI9VeJ-10" value="yes" style="text;html=1;align=center;verticalAlign=middle;resizable=0;points=[];autosize=1;strokeColor=none;fillColor=none;" vertex="1" parent="1">
          <mxGeometry x="540" y="238" width="40" height="30" as="geometry" />
        </mxCell>
        <mxCell id="uKn-QNpUoqeyclaI9VeJ-12" value="Welcome to rollocoatster" style="rounded=1;whiteSpace=wrap;html=1;" vertex="1" parent="1">
          <mxGeometry x="280" y="70" width="280" height="60" as="geometry" />
        </mxCell>
        <mxCell id="uKn-QNpUoqeyclaI9VeJ-13" value="" style="rounded=1;whiteSpace=wrap;html=1;" vertex="1" parent="1">
          <mxGeometry x="570" y="340" width="120" height="60" as="geometry" />
        </mxCell>
        <mxCell id="uKn-QNpUoqeyclaI9VeJ-14" value="" style="endArrow=classic;html=1;rounded=0;entryX=0.442;entryY=-0.033;entryDx=0;entryDy=0;entryPerimeter=0;" edge="1" parent="1" target="uKn-QNpUoqeyclaI9VeJ-13">
          <mxGeometry width="50" height="50" relative="1" as="geometry">
            <mxPoint x="510" y="270" as="sourcePoint" />
            <mxPoint x="630" y="270" as="targetPoint" />
            <Array as="points">
              <mxPoint x="623" y="270" />
            </Array>
          </mxGeometry>
        </mxCell>
      </root>
    </mxGraphModel>
  </diagram>
</mxfile>
